<?xml version="1.0" encoding="UTF-8"?>
<svg id="Skippy" xmlns="http://www.w3.org/2000/svg" viewBox="0 0 130 154">
  <defs>
    <style>
      .cls-1 {
        fill: #fff;
      }
    </style>
  </defs>
  <g id="white-7" data-name="white">
    <path class="cls-1" d="M26.61,8.28c-1.38,1.88-2.34,4.02-2.83,6.3-.68,2.29-.68,4.68-.1,7.2.48,2.39,1.56,4.59,2.92,6.6,1.46,1.99,3.22,3.49,5.47,4.88,2.15,1.3,4.39,2.1,6.94,2.69,2.61.48,5.29.51,7.91.1,2.53-.6,4.99-1.39,7.23-2.79,2.08-1.28,3.91-2.94,5.38-4.88,1.46-1.89,2.34-4.09,2.82-6.3.62-2.32.65-4.76.1-7.1-.46-2.42-1.46-4.71-2.92-6.7-1.46-1.89-3.31-3.49-5.48-4.89-2.15-1.29-4.49-2.24-6.94-2.79-2.61-.49-5.3-.49-7.91,0-2.63.4-4.99,1.4-7.23,2.69-2.11,1.28-3.93,2.98-5.37,4.98M25.54,74.39l-2.83,4.29c2.14-1.9,6.16-4.39,11.81-7.5,3.8-2.09,13.08-7.1,27.83-14.77,11.13-5.9,20.31-14.67,27.44-26.38,2.34-3.75,4.37-7.7,6.06-11.78.97-2.39,1.75-4.48,2.24-6.2.19-.7.29-1.99.29-3.59.1-1.79,0-3.59-.19-4.98-.19-1.79-.48-2.99-.97-3.59-.58-.6-1.27-.3-1.95.9-5.35,7.53-11.58,14.41-18.55,20.47-7.72,6.6-16.21,12.28-25.59,17.19-11.71,5.9-21.28,12.08-28.81,18.48-7.42,6.2-14.26,13.88-20.6,22.97-.78,1.19-1.46,2.79-2.05,4.98.97-.7,2.15-.9,3.61-.7l-2.24,4.58,3.6-2.99c1.17-1,2.24-1.69,3.31-1.99l-.87,3.19c2.34-2.39,5.47-4.69,9.08-7.1l-1.27,3.19c1.53-1.6,3.19-3.07,4.97-4.39l5.67-4.29ZM52.88,64.6c-3.9,2.29-7.42,4.79-10.54,7.6-5.77,5.11-10.54,11.58-14.34,19.38-3.8,7.1-6.74,15.97-9.08,26.68-1.07,5.1-1.75,9.89-1.95,14.47l2.53-3.59c-.84,5.22-1.29,10.5-1.36,15.79,1.17-2.1,1.95-3.49,2.53-4.29l-.29,13.77,5.57-13.77c.39,1.19.68,2.49,1.07,3.99,3.41-8.1,6.35-14.77,8.98-20.08,2.38-5.14,5.05-10.14,8.01-14.97,2.59-4.34,5.46-8.51,8.59-12.48,2.83-3.59,6.45-7.89,10.84-12.58.78-1.1,5.38-3.19,5.67-3.29,2.47-.89,4.98-1.65,7.52-2.29,1.46-.4,4.99-1.2,10.35-2.59,4.68-1.1,8.5-2.19,11.42-2.89,9.08-2.59,16.02-5.4,20.99-8.39,6.35-3.99,10.05-8.59,10.93-13.98-6.16,1.39-12.3,2.29-18.65,2.69-3.41.2-8.5.3-15.44.3-6.06,0-10.74.1-14.05.5-5.08.6-10.05,1.59-14.85,3.39-5.38,1.85-10.15,4.05-14.46,6.64"/>
  </g>
</svg>