<?xml version="1.0" encoding="UTF-8"?>
<svg id="Compassion" xmlns="http://www.w3.org/2000/svg" viewBox="0 0 126 48">
  <defs>
    <style>
      .cls-1 {
        fill: #2a5eec;
      }
    </style>
  </defs>
  <g id="blue-3" data-name="blue">
    <path class="cls-1" d="M62.36,40.59c0-.18-.17-.33-.38-.33h0c-.21,0-.37.15-.37.33s.16.33.37.33.38-.15.38-.33M62.96,45.6c-.46,0-.62-.19-.62-.49v-2.9h-.13l-1.12.39v.13l.4.08c.23.04.27.08.27.42v1.73c0,.46-.19.63-.72.63v.17h1.92v-.17ZM65.09,45.6c-.47,0-.58-.11-.58-.59v-1.87c.45-.31.87-.55,1.15-.55.35,0,.68.21.68.9,0,1.15-.02,1.78-.18,1.94-.1.09-.24.15-.49.16v.17h1.85v-.17h-.19c-.35,0-.49-.11-.48-.34,0-.1.01-.19.02-.3.02-.25.05-.6.05-1.4,0-.86-.34-1.29-.92-1.29-.4,0-.85.28-1.38.62l-.1.07v-.67h-.14l-.99.36v.14l.29.06c.22.04.26.1.26.42v1.81c0,.33-.2.54-.58.54v.17h1.74v-.16ZM68.74,47.77c1.08,0,1.79-1.17,1.79-2.9v-3.69c0-.46.12-.61.68-.63v-.17h-2.19v.17h.1c.62,0,.7.17.7.93v4.61c0,.96-.29,1.27-.71,1.27-.19,0-.35-.11-.49-.22-.13-.1-.26-.19-.4-.19-.17,0-.31.17-.31.34,0,.27.36.47.84.47M72.03,43.64v-.07h2.53v-.2c-.08-.08-.13-.19-.19-.32-.17-.35-.38-.81-1.23-.81-1.05,0-1.67.93-1.67,1.85,0,1,.66,1.77,1.5,1.77.63,0,1.18-.43,1.54-.89l-.09-.1c-.33.39-.67.56-1.1.56-.68,0-1.31-.61-1.31-1.5,0-.09.01-.19.02-.29M72.98,42.41c.41,0,.76.37.85.93h-1.77c.2-.8.63-.93.92-.93M76.15,45.7c-.39,0-.72-.29-.82-.81h-.14l.1.97h.13c.04-.07.1-.1.15-.1.05,0,.11.01.17.03l.06.02c.09.04.21.06.38.06.6,0,1.07-.42,1.07-.98s-.47-.87-.9-1.15c-.37-.23-.71-.45-.71-.8,0-.28.24-.48.53-.48.35,0,.63.28.69.72h.15l-.02-.79c-.22-.09-.45-.14-.69-.14-.66,0-1.11.4-1.11.97,0,.46.29.65.66.89.2.13.42.28.64.49.23.23.28.35.28.53,0,.31-.26.57-.61.57M80.5,45.87l1.16-.35v-.15l-.18.03c-.31.06-.4.02-.4-.22v-2.91l-1.33.2v.12l.43.08c.28.05.32.12.32.46v1.86c-.36.29-.73.47-1.03.47-.39,0-.78-.24-.78-.78v-2.41l-1.11.24v.13l.3.09c.18.05.23.15.23.35v1.92c0,.59.49.88.92.88.35,0,.82-.22,1.47-.69v.69ZM83.17,45.7c-.39,0-.72-.29-.82-.81h-.14l.09.97h.13c.04-.07.09-.1.15-.1.05,0,.11.01.17.03l.06.02c.1.04.22.06.38.06.6,0,1.07-.42,1.07-.98s-.47-.87-.9-1.15c-.37-.23-.7-.45-.7-.8,0-.28.24-.48.53-.48.35,0,.63.28.69.72h.15l-.02-.79c-.22-.09-.45-.14-.69-.14-.66,0-1.11.4-1.11.97,0,.47.29.65.66.9.2.13.42.28.64.49.23.23.28.35.28.53,0,.31-.27.57-.61.57M85.06,41.35c0,.31-.23.61-.67.86l.06.15c.57-.22.96-.73.96-1.27,0-.41-.26-.71-.6-.71-.26,0-.47.19-.47.42s.17.39.39.39c.05,0,.08,0,.11-.01.03,0,.06-.01.09-.01.09,0,.12.08.12.18M88.48,45.6c-.47,0-.58-.11-.58-.59v-1.87c.45-.31.88-.55,1.15-.55.35,0,.68.21.68.9,0,1.15-.02,1.78-.18,1.94-.1.09-.24.15-.49.16v.17h1.86v-.17h-.19c-.35,0-.49-.11-.49-.34,0-.1.01-.19.02-.3.02-.25.05-.6.05-1.4,0-.86-.33-1.29-.92-1.29-.4,0-.85.28-1.39.62l-.1.06v-.67h-.14l-.99.36v.14l.29.06c.22.04.26.1.26.42v1.81c0,.33-.2.54-.58.54v.17h1.73v-.16ZM91.38,43.25s0,.08.02.12h0s.59-.28.59-.28c-.03-.05-.04-.11-.04-.17,0-.18.25-.42.54-.42.19,0,.37.1.48.25.15.17.15.31.15.55v.68c-.24.14-.5.25-.77.33-.55.14-1.02.32-1.02.85,0,.42.3.71.8.71.23,0,.41-.03,1-.53,0,.14.04.53.4.53.15,0,.39-.1.85-.47l-.04-.13c-.22.18-.33.19-.43.19-.22,0-.22-.16-.22-.85v-1.16c0-.45,0-.56-.13-.74-.24-.33-.65-.46-.91-.46-.56,0-1.28.7-1.28,1M92.6,44.4c.18-.07.35-.15.51-.24v1.03c-.48.34-.59.38-.73.38-.28,0-.51-.22-.51-.5,0,0,0,0,0,0,0-.35.2-.44.72-.66M96.41,45.6c-.48,0-.6-.09-.6-.53h0s0-1.97,0-1.97c.59-.39.92-.5,1.16-.5.3,0,.64.2.64.74v1.6c0,.49-.17.67-.66.67v.17h1.77v-.17c-.43,0-.53-.1-.53-.53v-1.99c.54-.35.88-.48,1.15-.48.42,0,.65.32.65.99v.67c0,.6-.01,1.1-.14,1.23-.08.08-.19.12-.44.12h-.08v.17h1.94v-.17h-.28c-.36,0-.46-.21-.46-.39.03-.53.03-1.1.03-1.66,0-.83-.24-1.31-.86-1.31-.42,0-.95.33-1.53.69-.09-.42-.4-.69-.82-.69-.35,0-.92.25-1.54.69v-.69h-.13l-1.04.36v.15l.34.04c.2.03.25.1.25.44v1.69c0,.44-.11.66-.61.66v.17h1.8v-.16ZM102.08,43.66v-.1h2.53v-.2c-.08-.08-.13-.19-.19-.32-.17-.35-.38-.81-1.23-.81-1.05,0-1.67.93-1.67,1.85,0,1,.66,1.77,1.5,1.77.63,0,1.17-.43,1.54-.89l-.09-.1c-.33.39-.67.56-1.1.56-.68,0-1.31-.61-1.31-1.5,0-.08.01-.17.02-.27M103.04,42.41c.41,0,.76.37.86.93h-1.77c.2-.8.63-.93.92-.93M26.49,24.31c-.32,0-.45-.09-.45-.42v-.96h.03c.08,0,.15.01.26.01.12,0,.2,0,.3,0h.08c.14.09.33.25.58.5l.37.37c.5.5.76.72,1.75.67v-.1c-.44-.03-.78-.24-1.11-.57l-.44-.44c-.2-.21-.42-.4-.65-.59.46-.14.75-.49.75-.92,0-.58-.47-1-1.51-1-.37,0-.48,0-.71.01h-.19c-.2.02-.42.03-.52.03v.11h.12c.33,0,.42.1.42.45v2.38c0,.38-.12.47-.45.47h-.1v.11h1.6v-.11h-.13ZM26.32,22.84c-.09,0-.17,0-.28-.01v-1.85c.1-.01.17-.01.28-.01.87,0,1.11.41,1.11.93,0,.68-.41.94-1.04.94h-.07ZM29.77,23.04v-.05h1.66v-.13s-.08-.12-.12-.21c-.11-.23-.25-.53-.81-.53-.69,0-1.09.61-1.09,1.21,0,.66.43,1.16.99,1.16.41,0,.77-.28,1-.58l-.06-.07c-.21.25-.43.37-.72.37-.44,0-.86-.4-.86-.99,0-.06,0-.12.02-.18M30.39,22.23c.27,0,.5.24.56.61h-1.16c.13-.53.41-.61.6-.61M32.66,24.31c-.22,0-.33-.11-.33-.34h0v-3.35h-.08l-.72.23v.1l.26.03c.16.02.17.07.17.23v2.73c0,.27-.11.38-.47.38v.1h1.27v-.11h-.09ZM33.29,23h0s1.65-.01,1.65-.01v-.13c-.05-.06-.09-.13-.12-.21-.11-.23-.25-.53-.81-.53-.69,0-1.09.61-1.09,1.21,0,.66.43,1.16.98,1.16.41,0,.77-.28,1.01-.58l-.06-.07c-.21.25-.43.37-.71.37-.45,0-.86-.4-.86-.99,0-.07.01-.14.02-.22M33.91,22.23c.27,0,.5.24.56.61h-1.16c.13-.53.41-.61.6-.61M35.37,22.83v.02s.39-.19.39-.19c-.02-.03-.03-.07-.03-.11,0-.12.16-.28.35-.28.12,0,.24.07.31.17.1.11.1.2.1.36v.45c-.16.1-.33.17-.51.21-.36.09-.66.21-.66.55,0,.28.2.46.52.46.15,0,.27-.02.65-.34,0,.09.03.34.26.34.1,0,.25-.06.56-.31l-.03-.08c-.14.12-.21.12-.28.12-.15,0-.15-.1-.15-.55v-.76c0-.29,0-.37-.09-.49-.14-.19-.36-.3-.59-.3-.37,0-.84.46-.84.66,0,.02,0,.04,0,.06M36.16,23.53c.14-.06.23-.1.33-.16v.67c-.32.22-.38.25-.47.25-.18,0-.33-.14-.33-.33,0,0,0,0,0,0,0-.23.13-.29.47-.43M38.25,24.38c-.26,0-.47-.19-.54-.53h-.09l.06.63h.08s.06-.07.1-.07c.03,0,.07.01.11.02h.04c.08.04.16.05.25.05.39,0,.7-.28.7-.65s-.31-.57-.59-.75c-.24-.15-.46-.29-.46-.52,0-.19.16-.32.35-.32.23,0,.41.18.45.47h.1v-.51c-.16-.06-.31-.09-.46-.09-.43,0-.72.26-.72.63,0,.3.19.43.43.59.13.09.28.18.42.32.15.15.18.23.18.34,0,.2-.18.37-.4.37M40.11,21.03c0-.12-.11-.21-.25-.21s-.25.1-.25.21.11.21.25.21.25-.1.25-.21M40.5,24.31c-.3,0-.41-.12-.41-.32v-1.9h-.08l-.73.25v.09l.26.05c.15.03.17.06.17.28v1.13c0,.3-.12.41-.47.41v.11h1.26v-.11ZM41.97,24.31c-.31,0-.38-.07-.38-.38v-1.23c.29-.2.57-.36.75-.36.22,0,.44.14.44.59,0,.75,0,1.16-.12,1.27-.06.06-.16.1-.32.11v.1h1.21v-.11h-.12c-.23,0-.32-.07-.31-.23,0-.07,0-.13.01-.21.02-.3.04-.61.03-.91,0-.57-.22-.85-.6-.85-.26,0-.56.19-.91.41l-.06.04v-.44h-.09l-.65.24v.09l.19.04c.15.03.17.07.17.27v1.19c0,.22-.13.36-.38.36v.11h1.13v-.11ZM45.73,22.58c.22.04.48.06.57.07v-.36c-.25.03-.48.06-.74.06-.15-.15-.37-.23-.63-.23-.56,0-.99.38-.99.87,0,.32.2.56.54.7-.07.05-.16.08-.24.12-.17.07-.33.13-.33.3s.23.37.54.4c-.1.12-.21.2-.31.28-.16.12-.29.22-.29.42,0,.27.28.54.87.54,1.04,0,1.54-.56,1.54-.93,0-.15-.06-.29-.17-.39-.17-.17-.39-.2-1.03-.2-.57,0-.81-.06-.81-.2,0-.08.1-.13.19-.19.06-.03.11-.06.15-.1.08.03.17.05.26.05.63,0,.99-.4.99-.82,0-.13-.03-.25-.1-.36M45.95,24.91c0,.35-.45.67-.93.67-.47,0-.84-.3-.84-.57,0-.15.1-.23.21-.33.06-.05.11-.1.16-.16.09.01.33.02.56.03.2,0,.39.01.46.02.2.02.38.12.38.33M44.31,22.87c0-.52.33-.64.55-.64h0c.35,0,.59.28.59.76,0,.39-.21.66-.54.66-.43,0-.6-.45-.6-.78M49.06,24.49c.45,0,.76-.21,1-.59l-.08-.05c-.2.28-.42.41-.69.41-.46,0-.8-.42-.8-.98s.34-1,.73-1c.16,0,.26.09.35.18.09.08.17.16.31.16.09,0,.16-.08.16-.17,0,0,0,0,0,0,0-.18-.28-.32-.63-.32-.71,0-1.29.57-1.3,1.28,0,.45.27,1.09.95,1.09M51.54,24.31c-.3,0-.37-.07-.37-.34h0v-1.36c.28-.17.48-.26.67-.26s.51.08.51.68c0,.84-.02,1.09-.12,1.19-.06.06-.17.09-.31.09v.11h1.22v-.11c-.33,0-.42-.06-.43-.22.02-.38.03-.76.03-1.14,0-.57-.19-.84-.63-.84-.29,0-.56.14-.93.36v-1.85h-.09l-.67.23v.1l.24.03c.12.02.14.06.14.19v2.71c0,.31-.07.42-.39.44v.11h1.13v-.11ZM54.1,21.03c0-.12-.11-.21-.25-.21s-.25.1-.25.21.11.21.25.21.25-.1.25-.21M54.49,24.31c-.3,0-.41-.12-.41-.32v-1.9h-.08l-.73.25v.09l.27.05c.15.03.17.06.17.28v1.13c0,.3-.12.41-.47.41v.11h1.26v-.11ZM55.81,24.31c-.22,0-.33-.11-.33-.34v-3.35h-.09l-.72.23v.1l.26.03c.16.02.17.07.17.23v2.73c0,.27-.11.38-.47.38v.1h1.27v-.11h-.1ZM57.68,20.97c.18.02.22.05.22.16v1.1c-.18-.07-.36-.1-.55-.11-.69,0-1.24.57-1.23,1.26,0,0,0,.01,0,.02,0,.6.4,1.09.9,1.09.22,0,.51-.13.88-.4v.4h.07l.72-.28v-.12l-.13.04c-.16.04-.28,0-.28-.19v-3.32l-.78.23v.09l.18.02ZM57.23,22.27c.27,0,.47.12.67.43v1.26c-.25.18-.49.28-.67.28-.41,0-.73-.47-.73-1.04,0-.53.29-.93.73-.93M60.13,24.31c-.28,0-.37-.07-.37-.31h0v-1.1c.05-.09.11-.18.18-.28.06-.08.12-.15.22-.15.07,0,.14.02.2.06.1.05.2.08.3.09l.14-.34-.09-.02c-.07-.02-.14-.04-.21-.06h0c-.1-.04-.12-.05-.19-.05-.19,0-.25.11-.54.57h0v-.6h-.11l-.65.22v.1l.38.14v1.31c0,.3-.09.42-.38.42v.11h1.34v-.11h-.21ZM61.38,23h0s1.65-.01,1.65-.01v-.13c-.05-.06-.09-.13-.12-.21-.11-.23-.25-.53-.81-.53-.69,0-1.09.61-1.09,1.21,0,.66.43,1.16.99,1.16.41,0,.77-.28,1-.58l-.06-.07c-.21.25-.43.37-.71.37-.45,0-.86-.4-.86-.99,0-.07.01-.14.02-.22M62,22.23c.27,0,.5.24.56.61h-1.16c.13-.53.41-.61.6-.61M64.42,24.31c-.3,0-.38-.07-.38-.38v-1.23c.29-.2.57-.36.75-.36.22,0,.45.14.45.59,0,.75-.01,1.16-.12,1.27-.06.06-.16.1-.32.11v.1h1.21v-.11h-.12c-.23,0-.32-.07-.32-.23,0-.07,0-.13.01-.2.01-.17.03-.4.03-.92,0-.57-.22-.85-.61-.85-.26,0-.57.19-.92.42l-.05.03v-.44h-.09l-.65.24v.09l.19.04c.15.03.17.07.17.27v1.19c0,.22-.13.36-.38.36v.11h1.13v-.11ZM68.46,22.43h.61s-.04-.25-.04-.25h-.57v-.43c0-.55.22-.87.63-.87.25,0,.43.13.54.21.05.04.09.07.11.07.04,0,.15-.22.15-.27,0-.08-.27-.27-.58-.27-.26,0-.53.13-.8.4-.33.33-.44.69-.44,1.16-.13.07-.27.12-.42.15v.1h.42v1.49c0,.32-.06.39-.38.39v.11h1.4v-.11h-.21c-.32,0-.42-.07-.42-.33v-1.55Z"/>
    <path class="cls-1" d="M70.61,24.31c-.28,0-.37-.07-.37-.31v-1.1c.05-.09.11-.18.18-.28.06-.08.12-.15.22-.15.07,0,.14.02.2.06.1.05.2.08.3.09l.14-.34-.08-.02c-.1-.02-.17-.05-.21-.07h0c-.1-.04-.12-.05-.18-.05-.19,0-.26.11-.54.57h-.01v-.6h-.11l-.64.22v.1l.38.14v1.31c0,.3-.09.42-.38.42v.11h1.34v-.11h-.21ZM73.75,23.3c0-.67-.53-1.19-1.21-1.19-.59,0-1.22.42-1.22,1.2,0,.66.54,1.17,1.24,1.17s1.2-.51,1.2-1.18M73.32,23.45c0,.56-.38.9-.71.9-.49,0-.87-.55-.87-1.23,0-.49.35-.87.71-.87.48,0,.87.55.87,1.19M75.21,24.31c-.32,0-.39-.06-.39-.35v-1.29c.39-.25.6-.33.76-.33.2,0,.42.13.42.49v1.04c0,.32-.11.44-.43.44v.11h1.16v-.11c-.28,0-.35-.07-.35-.35v-1.3c.35-.23.58-.32.75-.32.28,0,.42.21.42.64v.44c0,.39,0,.72-.09.8-.05.05-.13.08-.29.08h-.05v.1h1.27v-.11h-.18c-.23,0-.3-.14-.3-.26.02-.34.02-.72.02-1.08,0-.54-.16-.85-.57-.85-.28,0-.62.22-1,.45h0c-.06-.27-.26-.45-.54-.45-.23,0-.6.17-1.01.45v-.45h-.08l-.68.24v.1l.22.03c.13.02.17.07.17.29v1.11c0,.29-.07.44-.4.44v.11h1.17v-.11ZM81.19,25.63c-.24,0-.38-.09-.38-.37v-.91c.22.08.36.11.51.11.64,0,1.2-.58,1.2-1.27,0-.55-.4-1.05-.84-1.05-.23,0-.53.15-.88.41v-.54h-.11l-.6.37v.11l.18.04c.14.03.16.08.16.19v2.49c0,.32-.09.42-.38.42h-.06v.11h1.33v-.11h-.14ZM81.48,24.28c-.25-.02-.49-.13-.67-.31v-1.29c.21-.17.42-.27.59-.27.3,0,.74.28.74,1.03,0,.46-.28.84-.67.84M85.48,23.3c0-.67-.53-1.19-1.22-1.19-.59,0-1.22.42-1.22,1.2,0,.66.54,1.17,1.24,1.17s1.2-.51,1.2-1.18M85.06,23.45c0,.56-.38.9-.71.9-.49,0-.87-.55-.87-1.23,0-.49.35-.87.72-.87.47,0,.87.55.87,1.19M85.97,22.59l.82,1.88h.17l.78-1.77c.11-.25.23-.37.45-.41v-.1h-.99v.1c.41.03.47.19.36.42l-.58,1.31-.6-1.41c-.14-.26-.03-.31.32-.32v-.1h-1.15v.1l.18.03c.09.02.16.09.25.28M88.69,23h0s1.65-.01,1.65-.01v-.13c-.05-.05-.08-.12-.12-.21-.11-.23-.25-.53-.81-.53-.69,0-1.09.61-1.09,1.21,0,.66.43,1.16.98,1.16.41,0,.77-.28,1-.58l-.06-.07c-.21.25-.43.37-.71.37-.45,0-.86-.4-.86-.99,0-.07,0-.14.02-.22M89.31,22.23c.27,0,.5.24.56.61h-1.16c.13-.53.41-.61.6-.61M91.88,24.31c-.28,0-.37-.07-.37-.31v-1.1c.05-.1.11-.19.18-.28.06-.08.12-.15.22-.15.07,0,.14.02.2.06.1.05.19.08.3.09l.14-.34-.07-.02c-.08-.02-.15-.04-.22-.07h0c-.1-.04-.12-.05-.18-.05-.19,0-.25.11-.54.57h-.01v-.6h-.11l-.64.22v.1l.38.14v1.31c0,.3-.09.42-.38.42v.11h1.34v-.11h-.21ZM94.24,22.43l.09-.25h-.81v-.56h-.1c-.13.35-.32.61-.54.72v.09h.26v1.4c0,.38.24.66.57.66.26,0,.48-.17.61-.46l-.09-.09c-.11.18-.22.28-.35.28s-.37-.12-.37-.48v-1.32h.72ZM96.21,22.28c.33.01.44.1.27.52l-.48,1.2-.64-1.38c-.11-.24-.07-.34.27-.34v-.1h-1.13v.1c.24,0,.34.1.45.33l.87,1.86-.17.43c-.05.11-.13.26-.19.32-.06.05-.14.09-.22.1-.13.04-.25.07-.25.21,0,.11.1.2.23.2.2,0,.33-.19.5-.6l.96-2.39c.11-.27.24-.43.47-.45v-.1h-.93v.1ZM17.12,25.24c-.95-2.68-3.44-4.44-6.59-4.44-4.82,0-7.83,3.5-7.83,8.35,0,5.23,3.76,9.07,8.15,9.07,2.28,0,5.08-.78,7.05-4.27h.55c-.45,1.47-1.07,2.89-1.85,4.22-1.85-.26-3.12.78-6.53.78-5.86,0-10.08-3.87-10.08-9.22s4.33-9.65,10.37-9.65c3.64,0,5.2,1.16,6.09,1.16.32,0,.46-.09.52-.17h.43l.26,4.19h-.55ZM26.07,38.12c1.7,0,3.64-1.73,3.64-4.62,0-3.29-2.02-6.09-4.45-6.09-1.91,0-3.67,1.96-3.67,4.45,0,3.5,2,6.27,4.48,6.27M25.67,26.71c3.52,0,6.21,2.63,6.21,6.06s-2.68,6.03-6.12,6.03-6.33-2.6-6.33-5.98c0-3.98,3.24-6.12,6.24-6.12M35.88,36.13c0,1.5.41,1.79,2.02,1.79v.55h-6.01v-.55c1.67,0,2.05-.75,2.05-2.22v-5.66c0-1.12-.17-1.39-.84-1.47l-1.13-.14v-.49l3.47-1.21h.43v2.31c2.08-1.47,3.99-2.31,5.14-2.31,1.42,0,2.46.89,2.74,2.31,1.94-1.22,3.7-2.31,5.11-2.31,2.08,0,2.89,1.59,2.89,4.36,0,1.85,0,3.78-.09,5.54,0,.61.35,1.3,1.53,1.3h.92v.55h-6.49v-.55h.26c.84,0,1.21-.14,1.47-.4.43-.43.46-2.11.46-4.1v-2.25c0-2.22-.75-3.29-2.17-3.29-.89,0-2.05.43-3.84,1.62v6.64c0,1.44.35,1.79,1.79,1.79v.55h-5.92v-.55c1.62,0,2.19-.58,2.19-2.22v-5.34c0-1.82-1.12-2.48-2.13-2.48-.81,0-1.91.38-3.87,1.67v6.59Z"/>
    <path class="cls-1" d="M56.69,36.21c1.04.93,2.34,1.56,3.41,1.56,1.97,0,3.41-1.94,3.41-4.3,0-3.81-2.25-5.25-3.78-5.25-.9,0-1.99.52-3.03,1.41v6.58ZM56.69,43.31c0,1.44.72,1.88,1.94,1.88h.72v.55h-6.81v-.55h.29c1.47,0,1.94-.49,1.94-2.14v-13.28c0-.55-.12-.78-.81-.95l-.92-.23v-.55l3.09-1.91h.58v2.77c1.79-1.36,3.32-2.11,4.48-2.11,2.25,0,4.27,2.54,4.27,5.37,0,3.5-2.83,6.5-6.12,6.5-.78,0-1.53-.17-2.63-.58v5.23ZM72.4,33.09c-.55.31-1.12.58-1.7.81-1.76.72-2.43,1.01-2.43,2.19,0,1.04.84,1.7,1.7,1.7.46,0,.81-.14,2.43-1.27v-3.44ZM66.68,30.46c-.05-.13-.08-.27-.09-.4,0-1.01,2.4-3.35,4.28-3.35.87,0,2.22.4,3.03,1.53.43.61.43.98.43,2.48v3.87c0,2.31,0,2.83.75,2.83.32,0,.69-.03,1.42-.63l.14.43c-1.56,1.27-2.37,1.59-2.86,1.59-1.19,0-1.3-1.3-1.33-1.76-1.99,1.65-2.57,1.76-3.35,1.76-1.67,0-2.69-.95-2.69-2.37,0-1.76,1.56-2.37,3.41-2.83.61-.14,1.56-.49,2.57-1.1v-2.28c0-.81,0-1.27-.49-1.85-.37-.46-.98-.84-1.62-.84-.95,0-1.79.81-1.79,1.41,0,.17.03.29.14.55l-1.96.95ZM77.89,35.54c.35,1.73,1.44,2.72,2.74,2.72,1.16,0,2.05-.87,2.05-1.91,0-.61-.14-.98-.92-1.76-2.05-2.05-4.33-2.25-4.33-4.65,0-1.91,1.5-3.23,3.7-3.23.78,0,1.59.17,2.31.46l.06,2.63h-.49c-.2-1.48-1.16-2.4-2.31-2.4-.95,0-1.76.66-1.76,1.62,0,2.54,5.37,2.98,5.37,6.5,0,1.88-1.56,3.29-3.58,3.29-.43,0-.86-.06-1.27-.2-.32-.09-.55-.17-.78-.17-.17,0-.34.11-.49.35h-.43l-.32-3.24h.46ZM86.06,35.54c.35,1.73,1.44,2.72,2.74,2.72,1.16,0,2.05-.87,2.05-1.91,0-.61-.14-.98-.92-1.76-2.05-2.05-4.33-2.25-4.33-4.65,0-1.91,1.5-3.23,3.7-3.23.78,0,1.59.17,2.31.46l.06,2.63h-.49c-.2-1.48-1.15-2.4-2.31-2.4-.95,0-1.76.66-1.76,1.62,0,2.54,5.37,2.98,5.37,6.5,0,1.88-1.56,3.29-3.58,3.29-.43,0-.86-.06-1.27-.2-.32-.09-.55-.17-.78-.17-.17,0-.35.11-.49.35h-.43l-.32-3.24h.46ZM97.69,36.27c0,1.01.55,1.65,2.08,1.65v.55h-6.41v-.55c1.76,0,2.4-.58,2.4-2.11v-5.8c0-1.13-.15-1.27-.9-1.42l-1.36-.26v-.46l3.75-1.3h.43v9.7ZM106.24,38.12c1.7,0,3.64-1.73,3.64-4.62,0-3.29-2.02-6.09-4.45-6.09-1.91,0-3.67,1.96-3.67,4.45,0,3.5,2,6.27,4.48,6.27M105.83,26.71c3.52,0,6.21,2.63,6.21,6.06s-2.68,6.03-6.12,6.03-6.32-2.6-6.32-5.98c0-3.98,3.23-6.12,6.24-6.12M115.92,35.95c0,1.59.37,1.96,1.93,1.96v.55h-5.8v-.55c1.27,0,1.93-.69,1.93-1.82v-6.06c0-1.07-.11-1.27-.86-1.41l-.99-.2v-.46l3.32-1.21h.46v2.25c1.93-1.21,3.55-2.28,4.97-2.28,1.96,0,3.09,1.44,3.09,4.33,0,3.84-.2,4.59-.23,5.72-.03.78.43,1.16,1.62,1.16h.64v.55h-6.21v-.55c.84-.03,1.33-.23,1.64-.55.55-.55.61-2.66.61-6.49,0-2.31-1.12-3.03-2.28-3.03-.92,0-2.34.81-3.84,1.85v6.27ZM24.41,6.3c1.9.09,3.51-1.23,3.59-2.94.08-1.71-1.4-3.18-3.3-3.26-1.9-.09-3.51,1.23-3.59,2.94-.08,1.71,1.4,3.18,3.3,3.27"/>
    <path class="cls-1" d="M33.7.12s-1.79,3.16-5.77,5.43c-3.98,2.26-7.52,3.58-10.91,8.81,0,0,1.01-.46.31.66,0,0,.52-.49.97-.64,0,0,.27-.06.16.27,0,0,1.78-1.38,1.33-.71-.27.4,1.42-1.28,1.62-1.11,0,0,.06.1-.2.48,0,0,4.03-2.43,5.54-3.07,6.53-2.78,7.93-7.37,7.33-9.96,0,0-.02-.52-.38-.17"/>
    <path class="cls-1" d="M20.09,22.48s.28-6.81,4.52-10.28c4.24-3.48,8.27-2.84,9.96-2.96,0,0,3.44.1,5.16-.48,0,0,.25,3.04-8.2,4.49,0,0-2.78-.04-5.16,3.13,0,0-2.36,2.65-4.55,8.12,0,0-.02-.79-.33-.23l-.81,1.84-.03-1.73s-.15-.44-.34.17c0,0-.16.2.11-2.1,0,0-.07-.49-.33.05h0ZM124.26,22.86h-.81v2.08h.32v-.89h.35l.57.89h.35l-.59-.92c.31-.03.55-.19.55-.57,0-.4-.23-.59-.73-.59M124.11,23.78h-.34v-.66h.43c.22,0,.46.04.46.32,0,.33-.26.34-.55.34"/>
    <path class="cls-1" d="M124.83,22.25c-.22-.09-.45-.13-.68-.13-.98.03-1.75.86-1.72,1.84.03.94.78,1.69,1.72,1.72.73,0,1.38-.43,1.65-1.1.09-.22.13-.45.13-.69,0-.72-.44-1.37-1.1-1.64M125.61,23.89c0,.87-.64,1.53-1.46,1.53h0c-.83,0-1.47-.66-1.47-1.53,0-.81.66-1.47,1.47-1.47s1.46.66,1.46,1.47"/>
  </g>
</svg>